<svg id="レイヤー_1" data-name="レイヤー 1" xmlns="http://www.w3.org/2000/svg" xmlns:xlink="http://www.w3.org/1999/xlink" viewBox="0 0 1093.92 400"><defs><style>.cls-1{fill:url(#名称未設定グラデーション_100);}.cls-2{fill:#fff;}</style><linearGradient id="名称未設定グラデーション_100" y1="200" x2="400" y2="200" gradientUnits="userSpaceOnUse"><stop offset="0" stop-color="#0089ff"/><stop offset="1" stop-color="#00b2ff"/></linearGradient></defs><title>LogoWithTitle</title><rect class="cls-1" width="400" height="400" rx="30.79" ry="30.79"/><rect class="cls-2" x="100" y="65" width="52" height="256" rx="5.06" ry="5.06" transform="translate(-61.35 58.74) rotate(-21.23)"/><rect class="cls-2" x="245.37" y="43.33" width="52" height="313.07" rx="5.06" ry="5.06" transform="translate(459.36 479.58) rotate(-160.28)"/><path d="M475.71,71.46q-2.64-7.54,5.28-7.55h4.16q5.66,0,7.17,5.29l77.75,208.33q1.88,4.92,3.58,10.19t3.21,10.2q1.5,5.65,3.4,11.32H581q1.89-5.67,3.4-11.32,1.5-4.91,3.21-10.2t3.58-10.19L669.33,69.2q1.5-5.28,7.17-5.29h4.15q7.92,0,5.28,7.55L591.58,322.83q-1.51,5.28-7.17,5.28h-7.17q-5.67,0-7.17-5.28Z" transform="translate(0 0)"/><path d="M716.12,304.33q-4.53-4.53-.37-9.06l2.64-3q4.14-4.89,9.06-.37a111.78,111.78,0,0,0,24,15.66,96.59,96.59,0,0,0,18.31,6.6A88.14,88.14,0,0,0,792,316.79a77.44,77.44,0,0,0,24-3.59A54.59,54.59,0,0,0,835,302.82a48.55,48.55,0,0,0,12.46-16.42A50.3,50.3,0,0,0,852,264.7q0-18.48-10-30.19a91.79,91.79,0,0,0-25.09-20.19,277,277,0,0,0-32.46-15.48,228,228,0,0,1-32.46-16,88.74,88.74,0,0,1-25.1-22.08q-10-13-10-33.4a62.69,62.69,0,0,1,6.23-28.12,64.4,64.4,0,0,1,17-21.51A76.45,76.45,0,0,1,765.38,64.1a100.32,100.32,0,0,1,31.13-4.72,98.28,98.28,0,0,1,21.71,2.27,117.44,117.44,0,0,1,17.92,5.47,85.89,85.89,0,0,1,13.59,6.79q5.65,3.6,9.06,6.23,4.9,3.78,1.51,8.68L858,92.22q-3.76,5.3-9,1.13-3.4-2.26-8.5-5.47a80.49,80.49,0,0,0-11.88-6,92.78,92.78,0,0,0-15.1-4.72,83.38,83.38,0,0,0-41.14,1.51,60.25,60.25,0,0,0-19.82,10,50.62,50.62,0,0,0-13.58,16,44.58,44.58,0,0,0-5.1,21.52q0,17.75,10,28.68A90.58,90.58,0,0,0,769,173.74a349.8,349.8,0,0,0,32.46,14.91,218.49,218.49,0,0,1,32.46,16.23A87.8,87.8,0,0,1,859,227.71q10,13.59,10,35.11a71.68,71.68,0,0,1-5.28,27.55,63.62,63.62,0,0,1-15.29,22.26,70.29,70.29,0,0,1-24.34,14.72q-14.36,5.29-32.46,5.29a104.25,104.25,0,0,1-26.8-3.21,127.41,127.41,0,0,1-21.7-7.74,113.51,113.51,0,0,1-16.42-9.24A109.66,109.66,0,0,1,716.12,304.33Z" transform="translate(0 0)"/><path d="M927.85,70.33q0-6.42,6.42-6.42h82.28a73.64,73.64,0,0,1,26.61,4.72,62.83,62.83,0,0,1,21.13,13.21,60.44,60.44,0,0,1,14,20.76,70.83,70.83,0,0,1,5.09,27.36q0,21.51-9.43,35.86A61.66,61.66,0,0,1,1049,187.71v.75q19.62,5.29,32.27,23.21t12.64,43.6a78.83,78.83,0,0,1-5.47,30,66.2,66.2,0,0,1-15.48,23,68.31,68.31,0,0,1-23.4,14.72,81.55,81.55,0,0,1-29.25,5.1H934.27q-6.42,0-6.42-6.42Zm88.32,111.34q22.26,0,36.23-14t14-37.74q0-23.4-13.59-37.17t-37-13.78H944.08V181.67ZM1018.81,313q26.81,0,42.46-15.28t15.67-42.46q0-27.18-16.42-42.84t-42.08-15.66H944.08V313Z" transform="translate(0 0)"/></svg>