<svg id="レイヤー_1" data-name="レイヤー 1" xmlns="http://www.w3.org/2000/svg" xmlns:xlink="http://www.w3.org/1999/xlink" viewBox="0 0 1030.65 400"><defs><style>.cls-1{fill:url(#名称未設定グラデーション_100);}.cls-2{fill:#fff;}.cls-3{fill:#1e1e1e;}</style><linearGradient id="名称未設定グラデーション_100" y1="200" x2="400" y2="200" gradientUnits="userSpaceOnUse"><stop offset="0" stop-color="#0089ff"/><stop offset="1" stop-color="#00b2ff"/></linearGradient></defs><title>LogoWithTitle</title><rect class="cls-1" width="400" height="400" rx="30.79" ry="30.79"/><rect class="cls-2" x="100" y="65" width="52" height="256" rx="5.06" ry="5.06" transform="translate(-61.35 58.74) rotate(-21.23)"/><rect class="cls-2" x="245.37" y="43.33" width="52" height="313.07" rx="5.06" ry="5.06" transform="translate(459.36 479.58) rotate(-160.28)"/><path class="cls-3" d="M508.87,90.89q-2.22-6.37,4.46-6.37h3.51q4.77,0,6,4.46l65.62,175.84q1.59,4.14,3,8.6c1,3,1.85,5.84,2.71,8.6q1.26,4.78,2.86,9.56h.64q1.59-4.79,2.87-9.56c.84-2.76,1.75-5.62,2.7-8.6s2-5.84,3-8.6L672.29,89q1.28-4.45,6.05-4.46h3.51q6.69,0,4.46,6.37L606.67,303c-.85,3-2.87,4.46-6,4.46h-6.06c-3.18,0-5.2-1.48-6-4.46Z" transform="translate(0 0)"/><path class="cls-3" d="M711.79,287.44q-3.82-3.82-.32-7.65l2.23-2.55q3.49-4.14,7.64-.32a86.13,86.13,0,0,0,8.13,6.21,89.66,89.66,0,0,0,12.1,7A82.6,82.6,0,0,0,757,295.72a74.62,74.62,0,0,0,18.8,2.23,65.53,65.53,0,0,0,20.22-3,46.08,46.08,0,0,0,16.09-8.76,41,41,0,0,0,10.51-13.86A42.42,42.42,0,0,0,826.47,254q0-15.62-8.45-25.49a77.62,77.62,0,0,0-21.18-17,233.93,233.93,0,0,0-27.4-13.06,192.81,192.81,0,0,1-27.39-13.54,75,75,0,0,1-21.18-18.63q-8.45-11-8.45-28.2a53.06,53.06,0,0,1,5.26-23.73A54.53,54.53,0,0,1,732,96.14a64.77,64.77,0,0,1,21.35-11.46,84.39,84.39,0,0,1,26.28-4A82.45,82.45,0,0,1,798,82.61a97.31,97.31,0,0,1,15.14,4.62A71,71,0,0,1,824.55,93q4.79,3,7.65,5.26,4.14,3.18,1.27,7.32l-1.91,2.87q-3.18,4.47-7.64,1-2.86-1.9-7.17-4.61a67.29,67.29,0,0,0-10-5.1,78.68,78.68,0,0,0-12.75-4,67.5,67.5,0,0,0-15-1.6,68.38,68.38,0,0,0-19.75,2.87,50.73,50.73,0,0,0-16.72,8.44,42.81,42.81,0,0,0-11.47,13.54,37.57,37.57,0,0,0-4.3,18.16q0,15,8.44,24.21a76.4,76.4,0,0,0,21.18,15.93,299.57,299.57,0,0,0,27.4,12.58,183.76,183.76,0,0,1,27.39,13.7,73.74,73.74,0,0,1,21.19,19.27q8.43,11.46,8.44,29.63a60.52,60.52,0,0,1-4.46,23.25,53.68,53.68,0,0,1-12.9,18.79,59.46,59.46,0,0,1-20.55,12.43,78.92,78.92,0,0,1-27.39,4.46,88.23,88.23,0,0,1-22.62-2.71,107.83,107.83,0,0,1-18.32-6.53,95.9,95.9,0,0,1-13.85-7.81A91.65,91.65,0,0,1,711.79,287.44Z" transform="translate(0 0)"/><path class="cls-3" d="M890.49,89.93c0-3.61,1.8-5.41,5.42-5.41h69.44a62.18,62.18,0,0,1,22.46,4,53,53,0,0,1,17.84,11.15,51,51,0,0,1,11.78,17.52,59.6,59.6,0,0,1,4.3,23.09q0,18.17-8,30.27a52,52,0,0,1-21,18.47v.64q16.56,4.47,27.23,19.59T1030.65,246a66.42,66.42,0,0,1-4.62,25.33A56,56,0,0,1,1013,290.78a57.58,57.58,0,0,1-19.75,12.42,68.8,68.8,0,0,1-24.68,4.3H895.91c-3.62,0-5.42-1.8-5.42-5.41Zm74.54,94q18.79,0,30.58-11.79t11.79-31.86q0-19.74-11.47-31.37T964.71,97.26H904.19v86.65Zm2.23,110.85q22.62,0,35.84-12.9T1016.32,246q0-22.94-13.86-36.15t-35.52-13.22H904.19v98.11Z" transform="translate(0 0)"/></svg>