<svg id="レイヤー_1" data-name="レイヤー 1" xmlns="http://www.w3.org/2000/svg" xmlns:xlink="http://www.w3.org/1999/xlink" viewBox="0 0 1019.65405 400"><defs><style>.cls-1{fill:url(#名称未設定グラデーション_100);}.cls-2{fill:#fff;}.cls-3{fill:#1e1e1e;}</style><linearGradient id="名称未設定グラデーション_100" y1="200" x2="400" y2="200" gradientUnits="userSpaceOnUse"><stop offset="0" stop-color="#0089ff"/><stop offset="1" stop-color="#00b2ff"/></linearGradient></defs><title>LogoWithTitle</title><rect class="cls-1" width="400" height="400" rx="30.78642" ry="30.78642"/><rect class="cls-2" x="100" y="65" width="52" height="256" rx="5.0623" ry="5.0623" transform="translate(-61.34527 58.73627) rotate(-21.23367)"/><rect class="cls-2" x="245.36916" y="43.32567" width="52" height="313.07153" rx="5.0623" ry="5.0623" transform="translate(459.36243 479.58334) rotate(-160.27532)"/><path class="cls-3" d="M519.84967,95.31621q-2.13822-6.10022,4.27209-6.10259H527.478a5.4564,5.4564,0,0,1,5.79784,4.2717l62.85762,168.43459q1.523,3.9697,2.89912,8.23864,1.37259,4.27761,2.59357,8.23864,1.21507,4.57723,2.74595,9.15448h.6103q1.523-4.57724,2.74674-9.15448,1.21508-3.96143,2.59358-8.23864,1.37258-4.26933,2.89832-8.23864L676.38422,93.48532q1.21626-4.26933,5.79745-4.2717h3.35625q6.40814,0,4.27209,6.10259L613.5266,298.53626a5.45252,5.45252,0,0,1-5.79745,4.27209h-5.79823q-4.57606,0-5.79745-4.27209Z" transform="translate(0 0)"/><path class="cls-3" d="M714.21644,283.58512q-3.6618-3.66179-.30555-7.32358l2.13644-2.4412q3.35388-3.96141,7.3228-.30475a90.69437,90.69437,0,0,0,19.3764,12.66311,78.44735,78.44735,0,0,0,14.79876,5.33952,71.52481,71.52481,0,0,0,18.00342,2.13644,62.77734,62.77734,0,0,0,19.37561-2.89912,44.17353,44.17353,0,0,0,15.40985-8.391,39.31294,39.31294,0,0,0,10.06953-13.27341,40.70423,40.70423,0,0,0,3.6618-17.5455q0-14.9468-8.08627-24.41117a74.3237,74.3237,0,0,0-20.29145-16.32451,224.72817,224.72817,0,0,0-26.24206-12.51033,184.87067,184.87067,0,0,1-26.24127-12.96826A71.79918,71.79918,0,0,1,722.913,167.4807q-8.08863-10.52706-8.08626-27.00434a50.76358,50.76358,0,0,1,5.03476-22.73265A52.14636,52.14636,0,0,1,733.59283,100.351a61.80855,61.80855,0,0,1,20.44383-10.985,81.06822,81.06822,0,0,1,25.17384-3.81417,79.423,79.423,0,0,1,17.54471,1.83089,94.55462,94.55462,0,0,1,14.494,4.42447,69.24487,69.24487,0,0,1,10.98538,5.4923q4.57605,2.90385,7.3228,5.03476,3.96259,3.05427,1.22059,7.01844l-1.83089,2.746q-3.05307,4.277-7.3228.91545-2.74635-1.8309-6.86566-4.42447a65.331,65.331,0,0,0-9.61162-4.882,75.275,75.275,0,0,0-12.206-3.81417,64.7067,64.7067,0,0,0-14.34084-1.52574,65.46094,65.46094,0,0,0-18.91847,2.74634,48.55927,48.55927,0,0,0-16.02015,8.08587A40.89682,40.89682,0,0,0,732.677,122.16818a36.03184,36.03184,0,0,0-4.11892,17.39273q0,14.34636,8.08547,23.19017A73.13667,73.13667,0,0,0,756.935,178.00816,285.35863,285.35863,0,0,0,783.17705,190.061a176.161,176.161,0,0,1,26.24127,13.12063,70.84482,70.84482,0,0,1,20.29145,18.46095q8.08153,10.9842,8.08627,28.37772a57.93006,57.93006,0,0,1-4.2721,22.27472,51.3603,51.3603,0,0,1-12.35756,18.00263,56.93431,56.93431,0,0,1-19.68115,11.90044,75.59339,75.59339,0,0,1-26.24206,4.27209,84.48213,84.48213,0,0,1-21.66443-2.59358,103.43049,103.43049,0,0,1-17.5455-6.25536,91.881,91.881,0,0,1-13.27341-7.476A88.85922,88.85922,0,0,1,714.21644,283.58512Z" transform="translate(0 0)"/><path class="cls-3" d="M885.39461,94.40076q0-5.18477,5.18715-5.18714h66.51942a59.47394,59.47394,0,0,1,21.512,3.81417,50.79481,50.79481,0,0,1,17.08758,10.67983,48.88871,48.88871,0,0,1,11.29014,16.78243,57.17507,57.17507,0,0,1,4.11892,22.12235q0,17.39233-7.62834,28.98762a49.80787,49.80787,0,0,1-20.13907,17.69788v.6103q15.86225,4.277,26.08968,18.7657,10.21916,14.49677,10.22192,35.24338a63.65721,63.65721,0,0,1-4.42447,24.258,53.685,53.685,0,0,1-12.51073,18.61373,55.36039,55.36039,0,0,1-18.91848,11.89964,65.99992,65.99992,0,0,1-23.6477,4.11971H890.58176q-5.19189,0-5.18715-5.18714Zm71.401,90.01514q18.00105,0,29.29356-11.29013,11.285-11.285,11.29013-30.51337,0-18.9165-10.98538-30.05584-10.98419-11.13519-29.90306-11.13736h-57.976v82.9967Zm2.13644,106.18727q21.66167,0,34.32754-12.35836,12.65877-12.358,12.66311-34.32753,0-21.96958-13.27341-34.63308Q979.3759,196.626,958.62653,196.62109H898.51485v93.98208Z" transform="translate(0 0)"/></svg>