<svg id="レイヤー_1" data-name="レイヤー 1" xmlns="http://www.w3.org/2000/svg" xmlns:xlink="http://www.w3.org/1999/xlink" viewBox="0 0 1057.21 400"><defs><style>.cls-1{fill:url(#名称未設定グラデーション_100);}.cls-2{fill:#fff;}</style><linearGradient id="名称未設定グラデーション_100" y1="200" x2="400" y2="200" gradientUnits="userSpaceOnUse"><stop offset="0" stop-color="#0089ff"/><stop offset="1" stop-color="#00b2ff"/></linearGradient></defs><title>LogoWithTitle</title><rect class="cls-1" width="400" height="400" rx="30.79" ry="30.79"/><rect class="cls-2" x="100" y="65" width="52" height="256" rx="5.06" ry="5.06" transform="translate(-61.35 58.74) rotate(-21.23)"/><rect class="cls-2" x="245.37" y="43.33" width="52" height="313.07" rx="5.06" ry="5.06" transform="translate(459.36 479.58) rotate(-160.28)"/><path d="M502.35,84.22q-2.37-6.77,4.74-6.77h3.73q5.09,0,6.43,4.74l69.79,187q1.68,4.41,3.22,9.15t2.87,9.14q1.35,5.08,3,10.17h.68q1.7-5.08,3-10.17,1.35-4.39,2.88-9.14c1-3.16,2.08-6.21,3.22-9.15l70.12-187c.9-3.16,3-4.74,6.43-4.74h3.73q7.11,0,4.74,6.77L606.35,309.83c-.91,3.17-3.05,4.74-6.44,4.74h-6.44c-3.38,0-5.53-1.57-6.43-4.74Z" transform="translate(0 0)"/><path d="M718.13,293.23q-4.07-4.07-.34-8.13l2.37-2.71q3.72-4.39,8.13-.34a94,94,0,0,0,8.64,6.61,95.67,95.67,0,0,0,12.87,7.45A87.46,87.46,0,0,0,766.23,302a79.58,79.58,0,0,0,20,2.37,69.72,69.72,0,0,0,21.51-3.22,49,49,0,0,0,17.1-9.31A43.6,43.6,0,0,0,836,277.14a45.2,45.2,0,0,0,4.07-19.48q0-16.59-9-27.1a82.67,82.67,0,0,0-22.53-18.12,248.55,248.55,0,0,0-29.13-13.89,204.53,204.53,0,0,1-29.13-14.4,79.63,79.63,0,0,1-22.53-19.81q-9-11.68-9-30a56.44,56.44,0,0,1,5.58-25.24,58,58,0,0,1,15.25-19.31,68.63,68.63,0,0,1,22.69-12.19,90.09,90.09,0,0,1,27.95-4.24,87.9,87.9,0,0,1,19.48,2,104,104,0,0,1,16.09,4.91,76.49,76.49,0,0,1,12.2,6.1c3.38,2.14,6.09,4,8.13,5.58,2.93,2.27,3.38,4.86,1.35,7.8l-2,3q-3.39,4.75-8.13,1c-2-1.35-4.58-3-7.62-4.91a72,72,0,0,0-10.67-5.42,84,84,0,0,0-13.55-4.23,71.72,71.72,0,0,0-15.93-1.7,72.77,72.77,0,0,0-21,3,53.85,53.85,0,0,0-17.78,9A45.41,45.41,0,0,0,738.62,114a40,40,0,0,0-4.57,19.31q0,15.93,9,25.75A81.19,81.19,0,0,0,765.55,176a315.76,315.76,0,0,0,29.14,13.39A196,196,0,0,1,823.82,204a78.63,78.63,0,0,1,22.52,20.5q9,12.19,9,31.5a64.34,64.34,0,0,1-4.74,24.73,57.06,57.06,0,0,1-13.72,20A63.24,63.24,0,0,1,815,313.9a83.88,83.88,0,0,1-29.13,4.74,93.56,93.56,0,0,1-24-2.88,115.22,115.22,0,0,1-19.48-6.95,102.9,102.9,0,0,1-14.74-8.29A98.57,98.57,0,0,1,718.13,293.23Z" transform="translate(0 0)"/><path d="M908.16,83.21q0-5.76,5.76-5.76h73.85a66,66,0,0,1,23.88,4.23,56.45,56.45,0,0,1,19,11.86,54.14,54.14,0,0,1,12.53,18.63,63.45,63.45,0,0,1,4.58,24.56q0,19.31-8.47,32.18a55.31,55.31,0,0,1-22.36,19.65v.68q17.61,4.74,29,20.83t11.34,39.12a70.64,70.64,0,0,1-4.91,26.93,59.69,59.69,0,0,1-13.89,20.67,61.42,61.42,0,0,1-21,13.21,73.26,73.26,0,0,1-26.25,4.57H913.92c-3.84,0-5.76-1.91-5.76-5.76Zm79.27,99.93q20,0,32.52-12.54t12.53-33.87q0-21-12.19-33.37T987.09,91H922.73v92.14ZM989.8,301q24,0,38.11-13.72T1042,249.19q0-24.39-14.74-38.44t-37.77-14.06H922.73V301Z" transform="translate(0 0)"/></svg>