<svg id="レイヤー_1" data-name="レイヤー 1" xmlns="http://www.w3.org/2000/svg" xmlns:xlink="http://www.w3.org/1999/xlink" viewBox="0 0 1008.56555 400"><defs><style>.cls-1{fill:url(#名称未設定グラデーション_100);}.cls-2{fill:#fff;}.cls-3{fill:#1e1e1e;}</style><linearGradient id="名称未設定グラデーション_100" y1="200" x2="400" y2="200" gradientUnits="userSpaceOnUse"><stop offset="0" stop-color="#0089ff"/><stop offset="1" stop-color="#00b2ff"/></linearGradient></defs><title>LogoWithTitle</title><rect class="cls-1" width="400" height="400" rx="30.78642" ry="30.78642"/><rect class="cls-2" x="100" y="65" width="52" height="256" rx="5.0623" ry="5.0623" transform="translate(-61.34527 58.73627) rotate(-21.23367)"/><rect class="cls-2" x="245.36916" y="43.32567" width="52" height="313.07153" rx="5.0623" ry="5.0623" transform="translate(459.36243 479.58334) rotate(-160.27532)"/><path class="cls-3" d="M510.92247,98.27333Q508.847,92.35225,515.0691,92.35h3.25769a5.29615,5.29615,0,0,1,5.62757,4.14625L584.966,259.98436q1.47826,3.85313,2.814,7.99669,1.33227,4.152,2.51741,7.9967,1.17939,4.44282,2.66531,8.88564h.59237q1.47826-4.44282,2.66608-8.88564,1.17939-3.84509,2.51741-7.9967,1.33227-4.14395,2.81321-7.99669L662.86006,96.4962A5.29262,5.29262,0,0,1,668.48725,92.35h3.25768q6.22,0,4.14664,5.92338L601.84838,295.52539a5.29241,5.29241,0,0,1-5.62719,4.14664h-5.628a5.2893,5.2893,0,0,1-5.62719-4.14664Z" transform="translate(0 0)"/><path class="cls-3" d="M711.02205,281.01333q-3.55425-3.55426-.29657-7.10852l2.0737-2.3695q3.25539-3.84508,7.10775-.29581a88.02955,88.02955,0,0,0,18.80736,12.29123,76.14258,76.14258,0,0,0,14.36417,5.18272,69.42412,69.42412,0,0,0,17.47471,2.0737,60.934,60.934,0,0,0,18.8066-2.814,42.87618,42.87618,0,0,0,14.95731-8.1446,38.15828,38.15828,0,0,0,9.77382-12.8836,39.50886,39.50886,0,0,0,3.55426-17.03024q0-14.50785-7.84879-23.69428a72.14075,72.14075,0,0,0-19.69555-15.84511,218.12672,218.12672,0,0,0-25.47141-12.14294A179.4409,179.4409,0,0,1,739.15877,185.645a69.69069,69.69069,0,0,1-19.69555-17.32643q-7.85109-10.21791-7.84879-26.2113a49.27265,49.27265,0,0,1,4.88691-22.06506,50.61471,50.61471,0,0,1,13.32808-16.882,59.99318,59.99318,0,0,1,19.84345-10.66239,78.68738,78.68738,0,0,1,24.43456-3.70216,77.09084,77.09084,0,0,1,17.02947,1.77713,91.77775,91.77775,0,0,1,14.06836,4.29453,67.2113,67.2113,0,0,1,10.66277,5.331q4.44168,2.81858,7.10775,4.88691,3.84623,2.96456,1.18475,6.81232l-1.77713,2.66531q-2.9634,4.15143-7.10774.88857-2.6657-1.77712-6.664-4.29454a63.41266,63.41266,0,0,0-9.32935-4.73862,73.06338,73.06338,0,0,0-11.84753-3.70216,62.80591,62.80591,0,0,0-13.91969-1.48094,63.53824,63.53824,0,0,0-18.36289,2.66569,47.133,47.133,0,0,0-15.54968,7.84841,39.69586,39.69586,0,0,0-10.662,12.58742,34.97368,34.97368,0,0,0-3.998,16.882q0,13.92505,7.848,22.50915a70.989,70.989,0,0,0,19.69555,14.809,276.97532,276.97532,0,0,0,25.47141,11.69885A170.98769,170.98769,0,0,1,803.42813,202.971a68.7641,68.7641,0,0,1,19.69555,17.91881q7.8442,10.66163,7.8488,27.54434a56.22885,56.22885,0,0,1-4.14664,21.62058,49.85188,49.85188,0,0,1-11.99466,17.474,55.2624,55.2624,0,0,1-19.10317,11.551,73.37331,73.37331,0,0,1-25.47141,4.14663,82.00139,82.00139,0,0,1-21.0282-2.5174,100.39231,100.39231,0,0,1-17.03024-6.07167,89.18358,89.18358,0,0,1-12.88361-7.25641A86.25273,86.25273,0,0,1,711.02205,281.01333Z" transform="translate(0 0)"/><path class="cls-3" d="M878.24892,97.38476q0-5.03251,5.03481-5.03481h64.56594A57.72731,57.72731,0,0,1,968.73,96.05211a49.30288,49.30288,0,0,1,16.58577,10.3662,47.453,47.453,0,0,1,10.95858,16.28957,55.496,55.496,0,0,1,3.998,21.47268q0,16.88157-7.40432,28.13634A48.34518,48.34518,0,0,1,973.32031,189.495v.59238q15.39642,4.15141,25.32351,18.21461,9.919,14.071,9.92173,34.20838A61.78783,61.78783,0,0,1,1004.271,266.056a52.10818,52.10818,0,0,1-12.14333,18.06709,53.7345,53.7345,0,0,1-18.36289,11.55019,64.06183,64.06183,0,0,1-22.95324,3.99873H883.28373q-5.0394,0-5.03481-5.03482Zm69.30418,87.37165q17.47242,0,28.43329-10.95857,10.9536-10.9536,10.95858-29.61728,0-18.361-10.66277-29.17318-10.66163-10.80819-29.0249-10.81029H890.98386v80.55932Zm2.0737,103.06886q21.02553,0,33.31944-11.99543,12.287-11.995,12.29123-33.31943,0-21.32439-12.88361-33.616-12.88361-12.28644-33.02363-12.29123H890.98386v91.2221Z" transform="translate(0 0)"/></svg>