<svg id="レイヤー_1" data-name="レイヤー 1" xmlns="http://www.w3.org/2000/svg" viewBox="0 0 120 90"><defs><style>.cls-1{fill:#1e1e1e;}.cls-2{fill:#fafafa;}</style></defs><title>NoThumbnail</title><rect class="cls-1" width="120" height="90"/><path class="cls-2" d="M58.06,55.76a.94.94,0,0,1-1.06-1V53a10.43,10.43,0,0,1,.84-4.38,15.67,15.67,0,0,1,2-3.32,21,21,0,0,1,2.67-2.74A23.9,23.9,0,0,0,65.24,40a15.3,15.3,0,0,0,2.05-3A8.44,8.44,0,0,0,68.12,33a7.52,7.52,0,0,0-2.51-5.69,9.18,9.18,0,0,0-2.86-1.71,10.52,10.52,0,0,0-3.7-.62,11.39,11.39,0,0,0-4.19.72A17.89,17.89,0,0,0,52,27.06a1,1,0,0,1-1.42-.31l-.25-.37c-.46-.62-.38-1.12.25-1.49a20.56,20.56,0,0,1,3.23-1.59A13.4,13.4,0,0,1,59,22.4a14.07,14.07,0,0,1,4.88.81,11.09,11.09,0,0,1,3.76,2.24,10.22,10.22,0,0,1,2.42,3.38,10.4,10.4,0,0,1,.87,4.26,10.6,10.6,0,0,1-.84,4.44A14.64,14.64,0,0,1,68,40.85a22.56,22.56,0,0,1-2.7,2.74,29.21,29.21,0,0,0-2.71,2.61,14.24,14.24,0,0,0-2.08,3A8.38,8.38,0,0,0,59.68,53v1.68a.94.94,0,0,1-1.06,1ZM56.51,63.9a.93.93,0,0,1,1.05-1h1.56a.93.93,0,0,1,1.05,1v1.68a.94.94,0,0,1-1.05,1.06H57.56a.94.94,0,0,1-1.05-1.06Z" transform="translate(0)"/></svg>