<svg id="レイヤー_1" data-name="レイヤー 1" xmlns="http://www.w3.org/2000/svg" viewBox="0 0 400 400"><defs><style>.cls-1{fill:none;}</style></defs><title>usericon</title><ellipse cx="200.5" cy="138" rx="104" ry="112.5"/><path d="M200.5,26C257.5701,26,304,76.243,304,138S257.5701,250,200.5,250,97,199.757,97,138,143.4299,26,200.5,26m0-1C142.78625,25,96,75.59181,96,138s46.78625,113,104.5,113S305,200.40819,305,138,258.21375,25,200.5,25Z"/><path class="cls-1" d="M0,0V400H62c0-64.06506,61.78473-116,138-116s138,51.93494,138,116h62V0Z"/><path d="M62.50146,386.5c.32227-63.457,61.87989-115,137.49854-115,75.61914,0,137.17578,51.543,137.499,115Z"/><path d="M200,272c36.62611,0,71.05243,11.98282,96.93729,33.74106C322.49142,327.22141,336.68948,355.68887,336.995,386H63.005c.30549-30.31113,14.50353-58.77859,40.05767-80.25894C128.94757,283.98282,163.37389,272,200,272m0-1c-76.21529,0-138,51.93494-138,116H338c0-64.06506-61.78473-116-138-116Z"/><rect x="62.5" y="385.5" width="275" height="14"/><path d="M337,386v13H63V386H337m1-1H62v15H338V385Z"/></svg>